<?xml version="1.0" encoding="utf-8"?>
<!-- Generator: Adobe Illustrator 17.0.0, SVG Export Plug-In . SVG Version: 6.00 Build 0)  -->
<!DOCTYPE svg PUBLIC "-//W3C//DTD SVG 1.1//EN" "http://www.w3.org/Graphics/SVG/1.1/DTD/svg11.dtd">
<svg version="1.1" id="Layer_1" xmlns="http://www.w3.org/2000/svg" xmlns:xlink="http://www.w3.org/1999/xlink" x="0px" y="0px"
	 width="382.85px" height="511.883px" viewBox="0 0 382.85 511.883" enable-background="new 0 0 382.85 511.883"
	 xml:space="preserve">
<g>
	<path fill="#70C175" d="M7.897,173.965c6.46-7.535,11.849-18.484,25.656-26.005c4.671-2.54,8.634-3.499,12.003-3.558
		c-0.678,4.283-0.267,8.211,0.963,11.41c2.479,6.495,8.872,9.148,13.916,5.737c5.054-3.42,4.64-11.738-5.053-17.063
		c-1.405-0.735-2.831-1.291-4.266-1.687c2.32-6.296,7.529-13.247,16.315-19.231l0.303,0.648c7.78,13.719,34.908,28.148,61.416-4.502
		c1.959-2.413,3.712-4.881,5.359-7.362c12.714,0.302,25.082-1.092,37.56-10.309c26.811-19.812,24.972-46.809,8.867-64.009
		c-7.509-8.012-17.091-12.07-26.691-12.568c2.648-10.237,9.463-16.845,15.329-17.013c7.168-0.202,12.948,3.1,21.853,13.231
		c9.123-9.938,14.977-13.043,22.133-12.685c6.263,0.305,13.541,7.921,15.48,19.409c-7.996,1.147-15.83,4.812-22.318,11.278
		c-16.682,16.634-19.439,43.547,6.676,64.272c11.202,8.891,22.555,11.094,34.225,11.5c1.265,1.883,2.583,3.762,4.022,5.611
		c25.823,33.2,53.237,19.346,61.302,5.793l0.26-0.504c11.045,6.87,17.26,15.172,19.672,22.478c-1.453,0.345-2.904,0.85-4.326,1.54
		c-9.871,4.986-10.562,13.298-5.637,16.88c4.934,3.579,11.406,1.155,14.113-5.259c1.332-3.157,1.883-7.056,1.35-11.37
		c3.361,0.177,7.299,1.277,11.879,3.979c13.539,7.986,18.543,19.108,24.742,26.857c6.289,7.867,9.879,2.665,6.631-2.231
		c-2.803-4.227-23.397-30.824-43.637-30.908c-1.611-7.683-6.689-16.415-17.131-24.571c-1.873-1.453-3.801-2.696-5.76-3.793
		c1.223-9.44-2.627-22.854-16.959-29.033c-18.464-7.955-31.582,7.428-28.221,17.844c0.519,1.618,1.318,2.925,2.188,4.075
		c-6.711,0.033-14.107,0.148-22.269,0.085c-3.686-5.055-6.694-10.651-9.095-16.577c4.979,0.085,10.382-1.322,16.086-4.696
		c15.464-9.172,20.846-34.517,6.514-50.709c-7.572-8.568-18.314-13.031-29.212-12.915c-1.194-19.734-13.501-27.752-22.237-27.474
		c-11.664,0.374-19.903,14.142-19.903,14.142s-8.954-13.543-20.57-14.635c-9.437-0.888-20.843,6.778-22.724,25.479
		c-9.071,0.828-17.802,4.846-24.395,11.809c-14.874,15.692-10.376,41.219,4.774,50.906c4.281,2.736,8.407,4.22,12.354,4.85
		c-2.357,5.904-5.309,11.496-8.916,16.573c-8.188-0.26-15.547-0.641-22.247-0.87c0.301-0.584,0.633-1.125,0.861-1.793
		c3.584-10.335-9.209-25.996-27.835-18.424c-14.332,5.832-18.515,18.972-17.594,28.414c-0.573,0.381-1.156,0.727-1.719,1.133
		c-10.717,7.795-16.089,16.347-17.958,23.963C25.79,141.497,4.29,167.38,1.347,171.509C-2.071,176.284,1.345,181.614,7.897,173.965z
		 M333.528,151.044c1.389,5.929,0.191,10.961-2.973,13.633c-4.893,4.12-9.742-2.79-6.832-6.891
		C324.665,156.457,327.87,152.403,333.528,151.044z M239.738,93.698c-6.527-17.744-7.901-38.05-5.906-55.41
		c0.177-1.502,0.27-2.94,0.341-4.352c7.352-0.122,14.721,2.156,20.975,7.277c2.71,2.23,4.891,4.758,6.666,7.424
		c2.229,4.203,4.434,10.821-1.007,14.619c-5.427,3.091-6.521-1.043-9.483,1.725c-2.957,2.76,1.74,9.065,9.161,7.685
		c2.8-0.526,5.341-2.779,6.659-6.085c-0.17,10.402-5.496,20.209-15.087,24.781C247.508,93.532,243.377,94.107,239.738,93.698z
		 M308.114,116.768c-6.243-2.243-13.065-3.245-20.838-3.648c1.035-3.88-2.06-8.187-5.901-8.511c-4.8-0.411-6.143,4.884-6.143,4.884
		s-7.008-7.308,4.814-14.844C294.05,86.926,311.329,102.202,308.114,116.768z M253.763,117.848c-0.664-0.743-1.263-1.532-1.89-2.304
		c7.421,0.014,14.986-0.423,22.739-0.204c3.669,2.665,8.165,2.797,10.629,0.861c5.265,0.73,10.611,1.972,16.073,4.157
		c1.574,0.632,3.042,1.313,4.495,2C295.953,137.878,272.062,138.391,253.763,117.848z M229.53,34.336
		c0.137,10.759-1.589,34.187,6.999,58.701c-8.74-2.519-13.931-10.604-14.102-13.619c-0.253-4.523,0.258-7.637,4.214-11.325
		c2.409-2.516,0.914-6.665-3.774-5.178c-4.71,1.472-10.28,13.018-3.229,22.007c4.637,5.903,10.799,10.122,17.985,11.178
		c2.155,5.581,4.91,11.187,8.326,16.691c-30.784-1.513-55.006-30.184-45.764-53.803C205.667,44.974,217.25,36.287,229.53,34.336z
		 M105.813,107.637c0,0-1.232-5.319-6.038-5.013c-3.132,0.197-5.826,3.049-6.231,6.187c-7.77,0.424-14.605,1.672-20.963,4.447
		c-1.956-14.316,15.199-28.402,28.729-20.572C112.981,100.471,105.813,107.637,105.813,107.637z M148.422,31.49
		c0.01,1.867,0.09,3.786,0.276,5.828c1.571,16.804-0.041,36.289-6.375,53.466c-2.646-0.301-5.46-1.099-8.464-2.658
		c-9.427-4.892-14.417-14.866-14.226-25.275c1.211,3.342,3.661,5.685,6.444,6.306c7.372,1.638,12.283-4.513,9.423-7.373
		c-2.868-2.868-4.102,1.229-9.425-2.044c-5.304-3.98-2.876-10.517-0.512-14.641c1.87-2.614,4.13-5.059,6.925-7.191
		C137.37,34.172,142.846,32.116,148.422,31.49z M136.13,109.78c3.343-5.387,6.062-10.894,8.2-16.358
		c8.802,0.388,16.479-3.902,22.145-10.62c7.361-8.735,2.184-20.471-2.458-22.111c-4.638-1.635-6.276,2.458-3.961,5.047
		c3.817,3.817,4.238,6.967,3.821,11.465c-0.312,3.447-7.431,13.332-18.629,13.7c8.855-24.477,7.409-47.925,7.85-58.186l0.159-1.385
		c14.061,0.545,27.866,10.071,33.548,26.223c8.595,24.43-17.823,53.008-49.535,52.269L136.13,109.78z M74.665,119.334
		c2.755-1.398,5.697-2.728,8.964-3.913c3.638-1.318,7.202-2.198,10.721-2.831c0.237,0.406,0.46,0.82,0.82,1.186
		c2.753,2.9,9.378,2.43,13.479-2.456c7.521-0.074,14.844,0.56,22.034,0.888c-1.135,1.461-2.327,2.877-3.582,4.231
		c-18.83,20.265-42.888,19.142-52.305,3.174L74.665,119.334z M50.377,144.979c5.621,1.556,8.681,5.716,9.586,7.078
		c2.755,4.197-2.319,10.939-7.066,6.649C49.808,155.934,48.792,150.859,50.377,144.979z"/>
</g>
<g>
	<path fill="#70C175" d="M260.114,511.883h-137.39c-15.05,0-28.932-5.472-37.281-14.666c-2.399,0.43-4.471,0.631-6.469,0.631
		c-15.232,0-27.66-8.907-27.967-19.94c-19.839-1.625-35.244-15.65-35.244-32.267v-228.31c0-16.695,15.464-30.712,35.395-32.287
		c-0.08-0.44-0.157-0.896-0.157-1.386c0-11.225,12.548-20.357,27.973-20.357c2.526,0,5.138,0.305,7.963,0.932
		c8.455-8.246,21.778-13.152,35.787-13.152h137.39c14.014,0,27.341,4.906,35.797,13.152c2.814-0.626,5.424-0.931,7.954-0.931
		c15.423,0,27.971,9.132,27.971,20.357c0,0.488-0.073,0.945-0.155,1.387c19.939,1.585,35.405,15.601,35.405,32.286v228.31
		c0,16.603-15.41,30.627-35.256,32.267c-0.306,11.034-12.732,19.941-27.965,19.941c-1.997,0-4.071-0.201-6.477-0.631
		C289.047,506.411,275.167,511.883,260.114,511.883z M85.892,495.654c0.335,0,0.656,0.123,0.843,0.336
		c7.933,9.04,21.387,14.436,35.99,14.436h137.39c14.606,0,28.058-5.397,35.983-14.436c0.233-0.267,0.676-0.395,1.098-0.312
		c2.538,0.487,4.657,0.714,6.67,0.714c14.32,0,25.971-8.479,25.971-18.902c-0.018-0.108-0.025-0.174-0.025-0.24
		c0-0.378,0.397-0.693,0.914-0.725c19.268-1.206,34.361-14.771,34.361-30.884v-228.31c0-16.222-15.205-29.798-34.615-30.906
		c-0.272-0.016-0.524-0.112-0.697-0.266c-0.172-0.154-0.251-0.353-0.217-0.55c0.029-0.172,0.061-0.341,0.095-0.51
		c0.095-0.493,0.185-0.959,0.185-1.441c0-10.422-11.65-18.901-25.971-18.901c-2.522,0-5.147,0.333-8.024,1.019
		c-0.416,0.098-0.868-0.009-1.122-0.265c-8.056-8.124-20.992-12.974-34.604-12.974h-137.39c-13.607,0-26.539,4.85-34.593,12.974
		c-0.256,0.256-0.71,0.364-1.121,0.266c-2.89-0.686-5.519-1.019-8.036-1.019c-14.321,0-25.973,8.479-25.973,18.901
		c0,0.432,0.077,0.851,0.159,1.295c0.04,0.223,0.081,0.445,0.113,0.671c0.028,0.195-0.054,0.39-0.227,0.541
		c-0.173,0.151-0.421,0.244-0.69,0.259c-19.398,1.1-34.593,14.676-34.593,30.906v228.31c0,16.126,15.086,29.691,34.345,30.884
		c0.518,0.032,0.915,0.347,0.915,0.725c0,0.062-0.007,0.124-0.015,0.186c-0.006,10.477,11.645,18.956,25.966,18.956
		c2.014,0,4.131-0.227,6.662-0.714C85.721,495.662,85.807,495.654,85.892,495.654z"/>
	<path fill="#70C175" d="M260.114,505.332h-137.39c-12.202,0-23.451-4.517-30.091-12.083l-3.142-3.582l-5.644,1.086
		c-1.957,0.377-3.46,0.544-4.873,0.544c-10.278,0-18.788-6.083-18.97-13.561c-0.001-0.038,0-0.075,0.003-0.112
		c0.01-0.126,0.016-0.25,0.016-0.375v-5.349l-7.322-0.453c-15.666-0.97-27.938-12.306-27.938-25.807v-228.31
		c0-13.587,12.359-24.931,28.137-25.827l8.177-0.464l-0.841-5.938c-0.039-0.278-0.088-0.551-0.139-0.823l-0.022-0.112
		c-0.031-0.157-0.06-0.314-0.073-0.475c-0.002-0.031-0.004-0.061-0.004-0.092c0.002-7.581,8.514-13.749,18.975-13.749
		c1.769,0,3.688,0.251,5.867,0.768l5.55,1.316l3.416-3.445c6.843-6.902,17.383-10.86,28.918-10.86h137.39
		c11.54,0,22.084,3.959,28.929,10.86l3.42,3.449l5.555-1.323c2.193-0.522,4.052-0.766,5.848-0.766
		c10.461,0,18.971,6.193,18.971,13.806c0,0.038-0.002,0.076-0.006,0.113c-0.007,0.064-0.065,0.386-0.111,0.621
		c-0.038,0.194-0.074,0.388-0.108,0.585l-1.038,6.049l8.351,0.477c15.792,0.902,28.163,12.246,28.163,25.827v228.31
		c0,13.49-12.281,24.826-27.961,25.807l-7.314,0.458v5.344c0,0.149,0.007,0.286,0.018,0.407c0.004,0.04,0.005,0.08,0.004,0.121
		c-0.21,7.455-8.719,13.52-18.967,13.52c-1.395,0-2.948-0.173-4.887-0.546l-5.642-1.083l-3.141,3.581
		C283.565,500.815,272.318,505.332,260.114,505.332z M90.391,486.532c0.671,0,1.312,0.247,1.686,0.673l3.928,4.477
		c5.902,6.724,15.891,10.739,26.72,10.739h137.39c10.831,0,20.816-4.014,26.711-10.737l3.925-4.476
		c0.467-0.532,1.355-0.788,2.195-0.624l7.054,1.353c1.597,0.306,2.825,0.449,3.866,0.449c8.062,0,14.759-4.755,14.966-10.612
		c-0.013-0.159-0.021-0.334-0.021-0.524v-6.68c0-0.756,0.795-1.385,1.829-1.45l9.143-0.572
		c13.628-0.852,24.303-10.914,24.303-22.906v-228.31c0-12.071-10.751-22.141-24.476-22.924l-10.439-0.596
		c-0.545-0.031-1.049-0.223-1.393-0.531c-0.346-0.309-0.503-0.706-0.435-1.101l1.298-7.563c0.036-0.212,0.076-0.423,0.116-0.631
		c0.026-0.135,0.06-0.307,0.078-0.408c-0.061-5.97-6.753-10.813-14.971-10.813c-1.36,0-2.823,0.198-4.603,0.622l-6.943,1.654
		c-0.826,0.196-1.733-0.017-2.244-0.532l-4.275-4.312c-6.083-6.134-15.444-9.653-25.685-9.653h-137.39
		c-10.234,0-19.592,3.518-25.674,9.652l-4.27,4.307c-0.508,0.513-1.415,0.73-2.241,0.532l-6.938-1.646
		c-1.772-0.42-3.285-0.625-4.627-0.625c-8.231,0-14.934,4.833-14.975,10.785c0.009,0.07,0.024,0.139,0.037,0.207l0.026,0.138
		c0.055,0.3,0.109,0.603,0.153,0.911l1.051,7.421c0.056,0.39-0.108,0.781-0.453,1.082c-0.346,0.301-0.843,0.488-1.381,0.519
		l-10.222,0.58c-13.709,0.778-24.448,10.847-24.448,22.924v228.31c0,12.002,10.664,22.063,24.277,22.906l9.152,0.567
		c1.035,0.065,1.831,0.694,1.831,1.451v6.686c0,0.163-0.006,0.324-0.018,0.488c0.182,5.876,6.882,10.648,14.969,10.648
		c1.054,0,2.242-0.138,3.85-0.448l7.055-1.358C90.05,486.547,90.221,486.532,90.391,486.532z"/>
</g>
<g>
	<g>
		<path fill="#70C175" d="M218.096,281.702c0,0-12.048,3.25-26.061,3.58c-14.012,0.331-27.527-4.06-27.527-4.06
			C191.385,293.266,218.096,281.702,218.096,281.702z"/>
		<path fill="#70C175" d="M190.997,287.202c-0.001,0-0.002,0-0.002,0c-9.532-0.001-18.512-1.859-26.691-5.525l0.359-0.932
			c0.13,0.043,13.606,4.372,27.361,4.036c13.787-0.325,25.822-3.53,25.942-3.563l0.328,0.942
			C218.178,282.211,206.473,287.202,190.997,287.202z M174.414,284.155c5.284,1.361,10.83,2.047,16.581,2.047
			c6.519,0,12.353-0.895,16.909-1.923c-4.464,0.712-10.003,1.365-15.857,1.503C185.687,285.928,179.393,285.104,174.414,284.155z"/>
	</g>
	<g>
		<path fill="#70C175" d="M254.991,281.221c-13.194,0.65-19.377,4.712-19.377,4.712s18.418-6.514,37.461-1.13
			c22.41,6.342,23.556,27.628-1.3,34.652c-3.124-6.471-14.295-15.232-39.657-14.785c-9.534,0.16-17.311,2.303-23.402,5.032
			c-3.287-1.951-8.846-5.544-15.652-8.879c9.391-4.52,15.039-5.585,20.305-6.246c7.66-0.981,16.943,1.46,18.9,2.931
			c1.954,1.46,3.262,1.78,4.235,1.3c0.975-0.489,2.447-1.95,3.907-0.489c1.47,1.471,2.616-0.65,4.237-0.33
			c1.631,0.33,3.421,0,3.421,0c-1.951-1.61-3.9-1.291-4.722-0.812c-0.815,0.491-1.791,0.651-1.791,0.651
			c-3.091-2.772-4.401-0.32-5.053-0.16c-0.65,0.16-1.626,0-1.626,0c-14.117-8.229-30.703-3.613-43.455,2.377
			c-12.754-5.99-29.345-10.605-43.457-2.377c0,0-0.976,0.16-1.626,0c-0.649-0.16-1.961-2.611-5.052,0.16c0,0-0.975-0.16-1.791-0.651
			c-0.814-0.479-2.766-0.799-4.728,0.812c0,0,1.791,0.33,3.422,0c1.631-0.32,2.771,1.801,4.237,0.33
			c1.465-1.461,2.925,0,3.911,0.489c0.976,0.48,2.275,0.16,4.237-1.3c1.95-1.471,11.24-3.912,18.893-2.931
			c5.271,0.661,10.926,1.726,20.311,6.246c-6.774,3.325-12.327,6.906-15.615,8.868c-6.093-2.719-13.841-4.861-23.344-5.022
			c-25.406-0.447-36.565,8.336-39.678,14.806c-24.932-7.003-23.812-28.331-1.37-34.673c19.037-5.384,37.461,1.13,37.461,1.13
			s-6.188-4.061-19.383-4.712c-16.287-0.82-37.301,6.352-36.485,20.689c0.602,10.531,9.049,16.031,19.286,18.792
			c-2.014,6.438,4.701,14.805,18.824,16.063c14.666,1.311,23.786-5.863,23.786-5.863s-12.711,7.174-26.878,4.393
			c-14.176-2.772-14.762-10.852-14.66-12.866c0.016-0.353,0.101-0.811,0.271-1.375c4.834,1.172,9.998,1.769,14.88,2.036
			c14.911,0.757,29.53-1.386,47.561-11.747c11.282,4.936,16.287,11.747,16.287,11.747s-3.252,3.902-4.232,9.125
			c-1.897,10.103,2.44,13.514,5.052,13.514c3.263,0,6.299-3.262,5.378-11.254c-0.822-7.004-4.723-11.384-4.723-11.384
			s4.999-6.791,16.245-11.736c18.003,10.351,32.621,12.493,47.521,11.736c4.909-0.268,10.1-0.874,14.967-2.058
			c0.176,0.554,0.26,1.044,0.276,1.396c0.101,2.014-0.496,10.094-14.655,12.866c-14.178,2.781-26.884-4.393-26.884-4.393
			s9.124,7.174,23.781,5.863c14.145-1.258,20.86-9.647,18.817-16.085c10.202-2.76,18.611-8.281,19.213-18.77
			C292.294,287.574,271.285,280.401,254.991,281.221z M115.312,320.467c-0.985-0.191-1.929-0.404-2.851-0.639
			c2.28-4.946,10.701-13.676,36.73-13.527c9.582,0.055,17.32,1.866,23.418,4.275C164.232,315.266,144.054,326.096,115.312,320.467z
			 M195.452,336.103c0.325,7.676-3.257,7.504-4.067,7.504c-0.815,0-4.567-0.648-4.076-7.812c0.549-7.994,4.401-11.246,4.401-11.246
			S195.132,328.611,195.452,336.103z M191.465,322.429c0,0-5.004-6.759-15.572-11.938c0.597-0.352,1.193-0.725,1.807-1.098
			c5.324-3.283,9.838-5.81,13.724-7.76c3.89,1.95,8.389,4.477,13.723,7.76c0.623,0.395,1.236,0.757,1.844,1.119
			C196.458,315.693,191.465,322.429,191.465,322.429z M267.533,320.467c-28.694,5.619-48.866-5.18-57.26-9.859
			c6.105-2.43,13.861-4.252,23.465-4.307c25.998-0.148,34.428,8.56,36.725,13.517C269.521,320.051,268.551,320.276,267.533,320.467z
			"/>
		<path fill="#70C175" d="M191.545,346.228c-1.35,0-2.79-0.765-3.852-2.045c-1.472-1.774-2.96-5.307-1.691-12.061
			c0.842-4.493,3.285-7.982,4.085-9.032c-1.098-1.341-6.081-6.96-15.62-11.188c-14.298,8.177-27.362,11.826-42.327,11.826
			c-1.696,0-3.475-0.047-5.289-0.139c-5.388-0.295-10.262-0.947-14.5-1.937c-0.074,0.306-0.117,0.577-0.127,0.798
			c-0.08,1.584,0.233,9.611,14.256,12.353c2.135,0.42,4.37,0.632,6.642,0.632c10.963,0,19.806-4.919,19.895-4.969l0.555,0.828
			c-0.318,0.251-7.938,6.131-20.531,6.131c-1.192,0-2.406-0.055-3.608-0.162c-8.128-0.724-14.614-3.866-17.794-8.622
			c-1.643-2.456-2.203-5.131-1.602-7.59c-12.192-3.408-18.64-9.836-19.169-19.113c-0.231-4.056,1.198-7.749,4.246-10.976
			c5.915-6.26,17.765-10.306,30.19-10.306c0.867,0,1.728,0.021,2.573,0.064c13.179,0.65,19.375,4.625,19.632,4.793l3.446,2.262
			l-3.887-1.372c-0.092-0.033-9.292-3.233-21.197-3.233c-5.635,0-11.005,0.711-15.961,2.112
			c-10.317,2.915-16.722,9.261-16.716,16.561c0.006,7.471,6.608,13.82,17.688,17.036c3.737-7.191,15.618-14.728,38.09-14.728
			c0.61,0,1.23,0.006,1.858,0.017c8.312,0.14,16.15,1.809,23.301,4.96c0.571-0.343,1.206-0.73,1.9-1.154
			c3.197-1.952,7.508-4.583,12.605-7.142c-8.959-4.207-14.412-5.155-19.23-5.76c-1.151-0.147-2.393-0.222-3.694-0.222
			c-6.482,0-13.222,1.839-14.835,3.056c-2.072,1.542-3.546,1.946-4.759,1.349c-0.2-0.099-0.416-0.233-0.646-0.377
			c-0.521-0.325-1.11-0.693-1.668-0.693c-0.36,0-0.695,0.159-1.023,0.486c-0.45,0.451-0.926,0.671-1.456,0.671
			c-0.549,0-1.038-0.239-1.511-0.471c-0.523-0.256-0.996-0.495-1.527-0.393c-0.511,0.103-1.086,0.156-1.708,0.156
			c-1.047,0-1.866-0.148-1.901-0.155l-1.059-0.195l0.832-0.683c1.324-1.086,2.588-1.314,3.416-1.314
			c0.702,0,1.388,0.167,1.883,0.458c0.503,0.303,1.085,0.468,1.396,0.542c1.007-0.856,1.932-1.273,2.823-1.273
			c1.03,0,1.724,0.562,2.183,0.934c0.112,0.091,0.266,0.215,0.322,0.238c0.316,0.076,1.077,0.032,1.325,0
			c5.118-2.963,10.943-4.466,17.313-4.466c7.834,0,16.686,2.278,26.312,6.772c9.624-4.494,18.475-6.772,26.308-6.772
			c6.37,0,12.195,1.503,17.314,4.466c0.249,0.034,0.989,0.082,1.34-0.004c0.042-0.019,0.196-0.144,0.309-0.235
			c0.459-0.372,1.153-0.933,2.183-0.933c0.891,0,1.816,0.417,2.822,1.273c0.311-0.073,0.892-0.238,1.392-0.54
			c0.504-0.294,1.19-0.461,1.891-0.461c0.827,0,2.09,0.228,3.407,1.315l0.827,0.683l-1.055,0.194
			c-0.034,0.006-0.852,0.155-1.9,0.155c-0.621,0-1.197-0.052-1.711-0.156c-0.507-0.101-0.994,0.138-1.516,0.393
			c-0.475,0.232-0.966,0.472-1.517,0.472c-0.53,0-1.008-0.22-1.459-0.671c-0.327-0.327-0.661-0.486-1.022-0.486
			c-0.562,0-1.155,0.371-1.678,0.699c-0.227,0.141-0.438,0.272-0.63,0.369c-1.216,0.598-2.721,0.177-4.759-1.346
			c-1.621-1.217-8.366-3.057-14.843-3.057c-1.302,0-2.545,0.075-3.695,0.222c-4.814,0.604-10.261,1.554-19.224,5.759
			c5.052,2.532,9.333,5.142,12.509,7.077c0.746,0.454,1.426,0.868,2.032,1.231c7.136-3.158,14.993-4.83,23.36-4.97
			c0.63-0.011,1.247-0.017,1.859-0.017c22.443,0,34.322,7.526,38.067,14.707c11.037-3.224,17.612-9.566,17.614-17.019
			c0.001-7.295-6.402-13.64-16.711-16.557c-4.958-1.401-10.329-2.112-15.965-2.112c-11.914,0-21.103,3.2-21.193,3.232l-3.888,1.375
			l3.446-2.264c0.257-0.169,6.448-4.143,19.627-4.793c0.846-0.043,1.705-0.064,2.573-0.064c12.426,0,24.277,4.045,30.192,10.305
			c3.049,3.227,4.478,6.919,4.249,10.976c-0.531,9.264-6.955,15.684-19.094,19.09c0.61,2.457,0.059,5.133-1.579,7.593
			c-3.175,4.768-9.667,7.917-17.812,8.642c-1.201,0.107-2.414,0.162-3.604,0.162h-0.001c-12.586-0.001-20.21-5.88-20.528-6.13
			l0.555-0.829c0.088,0.05,8.939,4.969,19.896,4.969c2.274,0,4.511-0.212,6.646-0.631c14.016-2.744,14.331-10.77,14.253-12.351
			c-0.012-0.237-0.057-0.523-0.129-0.823c-4.287,1.006-9.192,1.665-14.588,1.959c-1.84,0.094-3.568,0.139-5.288,0.139
			c-14.959,0-28.013-3.646-42.29-11.815c-9.504,4.233-14.464,9.816-15.572,11.169c0.919,1.152,3.861,5.252,4.575,11.333
			c0.66,5.722-0.707,8.611-1.97,10.027C194.408,345.611,193.058,346.228,191.545,346.228z M191.353,323.117l-0.244,0.293
			c-0.032,0.038-3.182,3.871-4.125,8.896c-1.26,6.71,0.385,9.921,1.478,11.238c0.875,1.054,2.027,1.684,3.083,1.684
			c1.22,0,2.311-0.502,3.157-1.45c1.127-1.265,2.341-3.895,1.724-9.246c-0.794-6.769-4.561-11.067-4.599-11.109l-0.26-0.292
			l-0.102,0.138L191.353,323.117z M125.305,281.658c-9.967,0-22.942,3.09-29.464,9.993c-2.852,3.018-4.189,6.461-3.975,10.232
			c0.51,8.92,6.875,15.09,18.917,18.337l0.502,0.136l-0.155,0.497c-0.719,2.298-0.243,4.867,1.34,7.234
			c3.011,4.503,9.226,7.484,17.052,8.182c0.33,0.029,0.661,0.055,0.993,0.076c-1.438-0.102-2.851-0.288-4.225-0.559
			c-14.833-2.899-15.15-11.655-15.063-13.381c0.019-0.41,0.117-0.914,0.293-1.495l0.137-0.452l0.46,0.111
			c4.287,1.039,9.263,1.72,14.789,2.023c1.794,0.091,3.557,0.137,5.236,0.137c14.856,0,27.825-3.645,42.048-11.819l0.218-0.125
			l0.231,0.101c7.181,3.141,11.819,6.997,14.294,9.456c-2.38-2.411-6.772-6.222-13.26-9.402l-0.833-0.408l0.8-0.471
			c0.402-0.237,0.804-0.484,1.211-0.733l0.59-0.361c5.052-3.115,9.682-5.733,13.759-7.779l0.224-0.113l0.224,0.113
			c4.062,2.037,8.563,4.582,13.76,7.781c0.552,0.349,1.091,0.67,1.624,0.988l1.005,0.6l-0.826,0.406
			c-6.388,3.142-10.732,6.885-13.125,9.292c2.493-2.457,7.093-6.249,14.159-9.356l0.231-0.102l0.219,0.126
			c14.204,8.167,27.161,11.808,42.012,11.808c1.702,0,3.415-0.045,5.235-0.138c5.531-0.301,10.536-0.989,14.874-2.044l0.453-0.11
			l0.142,0.445c0.172,0.542,0.278,1.084,0.299,1.524c0.087,1.724-0.234,10.478-15.059,13.379c-1.355,0.267-2.748,0.451-4.165,0.554
			c0.308-0.02,0.615-0.044,0.922-0.071c7.842-0.697,14.063-3.687,17.068-8.2c1.578-2.37,2.046-4.94,1.317-7.236l-0.158-0.497
			l0.504-0.137c11.993-3.244,18.334-9.406,18.845-18.316c0.213-3.771-1.125-7.213-3.977-10.232
			c-6.523-6.902-19.499-9.992-29.466-9.992c-0.852,0-1.693,0.021-2.523,0.063c-5.024,0.247-9.031,1.001-12.053,1.83
			c3.73-0.725,8.596-1.379,14.011-1.379c5.727,0,11.19,0.724,16.236,2.15c10.758,3.044,17.44,9.757,17.439,17.519
			c-0.002,8.015-7.007,14.78-18.739,18.095l-0.403,0.114l-0.183-0.378c-3.389-7.019-14.981-14.519-37.356-14.519
			c-0.607,0-1.218,0.005-1.842,0.017c-8.324,0.14-16.132,1.818-23.207,4.988l-0.236,0.106l-0.223-0.132
			c-0.665-0.395-1.423-0.856-2.264-1.369c-3.352-2.042-7.941-4.839-13.354-7.491l-0.925-0.453l0.928-0.447
			c9.654-4.647,15.401-5.656,20.459-6.292c1.191-0.153,2.477-0.23,3.821-0.23c5.279,0,10.628,1.169,13.571,2.314
			c-3.978-1.623-8.322-2.444-12.968-2.444c-7.743,0-16.522,2.28-26.095,6.777l-0.212,0.1l-0.212-0.1
			c-9.574-4.496-18.355-6.777-26.099-6.777c-4.635,0-8.97,0.816-12.939,2.433c2.944-1.141,8.274-2.303,13.542-2.303
			c1.343,0,2.628,0.077,3.819,0.23c5.064,0.635,10.816,1.644,20.465,6.292l0.927,0.446l-0.923,0.453
			c-5.459,2.68-10.077,5.499-13.448,7.557c-0.789,0.481-1.501,0.917-2.131,1.292l-0.223,0.133l-0.237-0.106
			c-7.09-3.164-14.879-4.839-23.148-4.978c-0.622-0.011-1.236-0.017-1.841-0.017c-22.402,0-33.997,7.51-37.377,14.539l-0.182,0.378
			l-0.404-0.113c-11.775-3.308-18.809-10.078-18.815-18.111c-0.006-7.767,6.678-14.482,17.444-17.524
			c5.044-1.427,10.506-2.15,16.233-2.15c5.412,0,10.275,0.653,14.004,1.377c-3.021-0.829-7.027-1.581-12.048-1.829
			C126.999,281.679,126.155,281.658,125.305,281.658z M176.929,310.451c8.494,4.339,13.191,9.539,14.536,11.173
			c1.344-1.63,6.028-6.812,14.485-11.149c-0.354-0.213-0.712-0.431-1.072-0.659c-5.071-3.122-9.478-5.618-13.455-7.622
			c-3.997,2.017-8.524,4.581-13.461,7.626l-0.588,0.36C177.225,310.27,177.077,310.361,176.929,310.451z M231.584,296.543
			c0.413,0.195,0.746,0.386,0.985,0.565c1.685,1.259,2.854,1.674,3.713,1.252c0.116-0.058,0.241-0.133,0.373-0.214
			c-0.011,0.003-0.021,0.006-0.032,0.008c-0.602,0.15-1.794,0.014-1.826,0.008l-0.171-0.061
			C233.639,297.525,232.625,297.006,231.584,296.543z M146.183,298.143c0.133,0.083,0.26,0.157,0.379,0.217
			c0.851,0.419,2.019,0.01,3.717-1.253c0.237-0.179,0.566-0.369,0.977-0.563c-1.039,0.462-2.052,0.981-3.038,1.556l-0.171,0.061
			c-0.031,0.005-1.222,0.142-1.827-0.008C146.208,298.151,146.195,298.147,146.183,298.143z M140.876,298.252
			c0.162,0.058,0.312,0.083,0.463,0.092l-0.131-0.022C141.192,298.32,141.068,298.299,140.876,298.252z M239.036,297.186
			c0.63,0,1.212,0.262,1.729,0.779c0.247,0.248,0.449,0.336,0.602,0.365l-0.144-0.129c-0.877-0.787-1.667-1.186-2.347-1.186
			c-0.676,0-1.162,0.394-1.554,0.711c-0.016,0.013-0.031,0.026-0.047,0.038C237.79,297.464,238.385,297.186,239.036,297.186z
			 M143.969,297.015c-0.68,0-1.47,0.399-2.347,1.186l-0.144,0.128c0.152-0.03,0.352-0.118,0.596-0.363
			c0.519-0.518,1.1-0.779,1.73-0.779c0.658,0,1.26,0.285,1.778,0.589c-0.02-0.017-0.04-0.033-0.061-0.05
			C145.131,297.41,144.645,297.015,143.969,297.015z M244.306,297.455c0.144,0,0.29,0.014,0.439,0.043
			c0.535,0.108,1.195,0.153,1.814,0.133c-1.255-0.549-2.11-0.397-2.758-0.122C243.964,297.475,244.132,297.455,244.306,297.455z
			 M136.285,297.631c0.623,0.017,1.278-0.026,1.808-0.133c0.342-0.066,0.66-0.051,0.957,0.011c-0.325-0.14-0.751-0.222-1.181-0.222
			C137.455,297.288,136.905,297.361,136.285,297.631z M191.504,344.107h-0.119c-0.268,0-1.668-0.065-2.88-1.364
			c-1.343-1.439-1.913-3.788-1.695-6.983c0.557-8.112,4.414-11.456,4.578-11.594l0.383-0.323l0.322,0.383
			c0.144,0.171,3.536,4.28,3.86,11.855c0.139,3.292-0.414,5.612-1.645,6.897C193.225,344.107,191.929,344.107,191.504,344.107z
			 M191.654,325.314c-0.958,1.056-3.422,4.339-3.846,10.515c-0.197,2.866,0.297,5.021,1.428,6.231
			c0.95,1.018,2.029,1.047,2.149,1.047h0.119c0.354,0,1.294,0,2.081-0.821c1.021-1.064,1.493-3.195,1.367-6.161
			C194.703,330.278,192.498,326.542,191.654,325.314z M131.342,322.55c-5.305,0-10.731-0.536-16.127-1.592
			c-0.974-0.189-1.916-0.4-2.878-0.645l-0.583-0.148l0.252-0.546c1.915-4.155,9.31-13.82,36.532-13.82l0.656,0.002
			c8.543,0.049,16.483,1.499,23.599,4.311l0.979,0.387l-0.919,0.515C166.686,314.465,152.242,322.55,131.342,322.55z
			 M113.184,319.493c0.738,0.178,1.47,0.337,2.223,0.484c5.333,1.044,10.695,1.574,15.936,1.574c19.651,0,33.541-7.249,40.091-10.89
			c-6.744-2.516-14.222-3.813-22.245-3.859l-0.65-0.002C123.047,306.799,115.405,315.273,113.184,319.493z M251.513,322.549
			c-20.849,0-35.309-8.061-41.482-11.504l-0.919-0.512l0.978-0.389c7.117-2.833,15.073-4.293,23.646-4.342l0.657-0.002
			c27.19,0,34.601,9.657,36.524,13.808l0.254,0.55l-0.588,0.146c-1.151,0.285-2.063,0.487-2.957,0.655
			C262.238,322.014,256.816,322.549,251.513,322.549z M211.448,310.689c6.557,3.63,20.46,10.859,40.064,10.859
			c5.239,0,10.597-0.529,15.925-1.572c0.716-0.135,1.442-0.292,2.3-0.497c-2.231-4.217-9.89-12.681-35.345-12.681l-0.651,0.002
			C225.689,306.847,218.195,308.155,211.448,310.689z"/>
	</g>
	<g>
		<path fill="#70C175" d="M156.088,298.584c0.656-1.3-0.427-2.164-1.95-1.076c-1.525,1.076-2.175,0.426-2.175,0.426
			C151.963,299.235,155.438,299.885,156.088,298.584z"/>
		<path fill="#70C175" d="M154.458,299.793C154.458,299.793,154.458,299.793,154.458,299.793c-1.441,0-2.995-0.711-2.995-1.859
			v-1.209l0.853,0.855c-0.014-0.015,0.08,0.049,0.268,0.049c0.235,0,0.646-0.092,1.266-0.529c1.091-0.778,2.268-0.736,2.736,0.023
			c0.279,0.454,0.26,1.069-0.052,1.688C156.222,299.435,155.465,299.793,154.458,299.793z M153.171,298.546
			c0.358,0.146,0.816,0.248,1.287,0.248l0,0c0.597,0,1.05-0.166,1.183-0.433c0.177-0.351,0.164-0.599,0.094-0.714
			c-0.068-0.11-0.211-0.133-0.319-0.133c-0.159,0-0.499,0.052-0.987,0.401C153.985,298.228,153.565,298.438,153.171,298.546z"/>
	</g>
	<g>
		<path fill="#70C175" d="M226.65,298.584c0.657,1.301,4.131,0.65,4.131-0.65c0,0-0.655,0.65-2.163-0.426
			C227.087,296.42,225.999,297.285,226.65,298.584z"/>
		<path fill="#70C175" d="M228.285,299.793c-1.008,0-1.767-0.358-2.082-0.983c-0.31-0.619-0.326-1.233-0.047-1.686
			c0.471-0.76,1.649-0.807,2.751-0.023c1.127,0.806,1.533,0.466,1.542,0.459l0.852-0.846l-0.021,1.22
			C231.28,299.082,229.726,299.793,228.285,299.793z M227.334,297.514c-0.111,0-0.257,0.024-0.326,0.136
			c-0.071,0.115-0.086,0.362,0.089,0.711c0.135,0.266,0.59,0.433,1.188,0.433c0.471,0,0.929-0.102,1.287-0.248
			c-0.392-0.107-0.809-0.318-1.245-0.63C227.836,297.566,227.493,297.514,227.334,297.514z"/>
	</g>
</g>
<g>
	<path fill="#70C175" stroke="#70C175" stroke-miterlimit="10" d="M131.762,245.08c0.861-0.123,1.969-0.164,3.322-0.123
		l-14.824-30.141l0.246,50.993c1.886-0.042,3.403-0.185,4.552-0.431c0.41-0.083,0.666,0.092,0.769,0.522
		c0.102,0.431-0.072,0.707-0.523,0.83c-1.313,0.287-3.117,0.431-5.413,0.431c-2.624,0-4.388,0.041-5.29,0.123
		c-0.451,0.041-0.697-0.164-0.738-0.615c-0.04-0.451,0.164-0.697,0.615-0.738c0.984-0.122,2.543-0.164,4.675-0.122l-0.246-53.639
		h-3.629c-0.451,0-0.677-0.225-0.677-0.677c0-0.45,0.226-0.677,0.677-0.677h8.181c0.451,0,0.676,0.227,0.676,0.677
		c0,0.452-0.226,0.677-0.676,0.677h-2.953l15.378,31.494l14.64-31.802h-0.061c-2.337,0.206-4.101,0.308-5.29,0.308
		c-0.452,0-0.677-0.225-0.677-0.677c0-0.45,0.225-0.677,0.677-0.677c1.147,0,2.891-0.081,5.229-0.246
		c2.337-0.204,4.1-0.307,5.29-0.307c0.451,0,0.677,0.226,0.677,0.676c0,0.452-0.226,0.677-0.677,0.677
		c-1.025,0-2.236,0.061-3.629,0.185l-0.123,0.184l0.062,53.762c1.763-0.042,3.178-0.165,4.245-0.369
		c0.451-0.083,0.717,0.102,0.799,0.553c0.082,0.451-0.103,0.718-0.553,0.8c-1.19,0.246-2.851,0.369-4.982,0.369
		c-2.297,0-3.896,0.062-4.798,0.185c-0.452,0.041-0.698-0.164-0.738-0.615c-0.041-0.451,0.163-0.697,0.615-0.738
		c0.942-0.122,2.296-0.184,4.059-0.184l-0.061-50.808l-13.84,30.141c1.148,0.041,1.989,0.062,2.522,0.062
		c0.451,0,0.677,0.226,0.677,0.676c0,0.452-0.226,0.677-0.677,0.677c-0.329,0-1.589-0.051-3.783-0.153
		c-2.194-0.102-3.394-0.071-3.599,0.092c-0.452,0.042-0.698-0.163-0.738-0.615C131.106,245.367,131.31,245.121,131.762,245.08z"/>
	<path fill="#70C175" stroke="#70C175" stroke-miterlimit="10" d="M181.648,221.889c-0.123,1.148-0.103,2.953,0.062,5.413
		c0.164,2.461,0.185,4.348,0.062,5.659c-0.042,0.452-0.288,0.656-0.738,0.615c-0.452-0.04-0.656-0.286-0.615-0.738
		c0.123-1.188,0.123-2.809,0-4.859c-6.069,0-10.19,0.083-12.364,0.246c-0.164,7.3-0.246,11.646-0.246,13.04
		c0,1.107,0.062,2.892,0.185,5.352c0.123,2.461,0.185,4.337,0.185,5.629c0,1.291-0.123,3.127-0.369,5.505
		c1.804,0,4.952-0.021,9.442-0.061c4.49-0.04,7.965-0.062,10.426-0.062c0-0.369,0.009-0.871,0.031-1.507
		c0.02-0.636,0.03-1.076,0.03-1.322c0.04-1.436,0.021-2.604-0.061-3.507c-0.042-0.45,0.163-0.696,0.615-0.737
		c0.451-0.041,0.697,0.164,0.738,0.614c0.081,0.984,0.102,2.194,0.061,3.63c0,0.287-0.011,0.667-0.031,1.138
		c-0.021,0.472-0.031,0.913-0.031,1.322v1.046v0.062c0,0.451-0.226,0.677-0.677,0.677c-0.083,0-0.185-0.021-0.308-0.062
		c-2.543,0-6.151,0.021-10.826,0.062c-4.675,0.04-7.977,0.061-9.903,0.061c-0.123,0.04-0.268,0.061-0.431,0.061
		c-0.042,0-0.103-0.021-0.185-0.061h-2.214c-0.452,0-0.677-0.226-0.677-0.677c0-0.451,0.225-0.677,0.677-0.677h1.968
		c0.246-1.558,0.369-3.249,0.369-5.074c0-1.824-0.062-3.885-0.185-6.183c-0.123-2.296-0.185-4.038-0.185-5.229
		c0-1.065,0.082-5.576,0.246-13.532v-0.061v-0.246c0.123-4.838,0.102-8.816-0.061-11.933c-0.738,0-1.436,0.041-2.091,0.122
		c-0.452,0.042-0.698-0.163-0.738-0.614c-0.04-0.451,0.164-0.697,0.615-0.738c2.953-0.246,6.991-0.308,12.118-0.185
		c7.381,0.246,11.441,0.369,12.179,0.369c0.451,0,0.677,0.226,0.677,0.677c0,0.164-0.061,0.308-0.185,0.431
		c0,0.328,0.031,0.943,0.092,1.845c0.061,0.902,0.092,1.549,0.092,1.938c0,0.391-0.042,1.057-0.123,1.999
		c-0.083,0.452-0.349,0.637-0.8,0.554c-0.452-0.081-0.636-0.348-0.554-0.8c0.082-0.86,0.123-1.445,0.123-1.753
		s-0.031-0.87-0.092-1.691c-0.061-0.819-0.092-1.435-0.092-1.846c-0.369,0-4.163-0.123-11.379-0.368
		c-3.445-0.082-6.274-0.082-8.489,0c0.164,3.035,0.205,6.849,0.123,11.441c2.173-0.163,6.233-0.246,12.179-0.246
		c-0.123-1.968-0.123-3.588,0-4.859c0.041-0.45,0.287-0.655,0.738-0.615C181.483,221.193,181.688,221.439,181.648,221.889z"/>
	<path fill="#70C175" stroke="#70C175" stroke-miterlimit="10" d="M197.209,214.816c0.902-0.082,2.03-0.123,3.383-0.123
		c0.246,0,0.748,0.011,1.508,0.03c0.758,0.021,1.342,0.031,1.753,0.031c0.45,0,0.677,0.226,0.677,0.677
		c0,0.451-0.227,0.676-0.677,0.676c-0.288,0-1.128-0.02-2.523-0.062l2.215,5.413l2.584,6.151l2.215,5.044l2.645,5.844
		c0.328,0.738,1.004,2.01,2.029,3.813c0.902,1.56,1.578,2.871,2.029,3.937c1.969,4.798,3.732,8.305,5.291,10.519
		c0-1.722,0.02-4.429,0.061-8.119c0.041-3.691,0.062-6.951,0.062-9.78c0-2.83-0.041-5.557-0.123-8.181
		c0-0.369-0.062-1.435-0.186-3.199c-0.123-1.558-0.205-2.993-0.246-4.306c-0.082-1.886-0.102-3.342-0.061-4.367
		c0.041-1.148,0.143-2.009,0.307-2.584c-1.23,0-2.213,0.104-2.951,0.308c-0.453,0.123-0.738-0.04-0.861-0.492
		c-0.123-0.45,0.039-0.737,0.492-0.86c0.654-0.164,1.393-0.267,2.213-0.308s1.824-0.041,3.016,0c1.188,0.041,1.885,0.062,2.09,0.062
		c0.451,0,0.678,0.225,0.678,0.676c0,0.452-0.227,0.677-0.678,0.677c-0.246,0-1.086-0.019-2.521-0.061
		c-0.041,0.042-0.061,0.083-0.061,0.123c-0.207,0.411-0.33,1.252-0.369,2.523c-0.041,1.148-0.021,2.563,0.061,4.244
		c0.041,1.107,0.123,2.543,0.246,4.306c0.123,1.764,0.186,2.851,0.186,3.261c0.082,2.624,0.123,5.412,0.123,8.365
		c0,2.952-0.021,6.274-0.062,9.965s-0.061,6.479-0.061,8.365c0.615-0.04,1.701-0.102,3.26-0.185c0.451-0.04,0.697,0.165,0.738,0.615
		c0.039,0.452-0.164,0.697-0.615,0.738c-1.969,0.082-3.344,0.163-4.121,0.246c-0.207,0.123-0.41,0.143-0.615,0.061
		c-0.697,0.082-1.375,0.205-2.029,0.369c-0.412,0.081-0.668-0.093-0.77-0.523c-0.104-0.43,0.07-0.707,0.523-0.83l1.229-0.246
		c-1.641-2.296-3.465-5.925-5.475-10.888c-0.41-0.942-1.066-2.193-1.967-3.752c-1.068-1.886-1.764-3.178-2.092-3.875
		c-1.682-3.567-4.84-10.928-9.473-22.083c-0.041,0.41-0.083,0.883-0.123,1.415c-0.041,1.107-0.021,2.521,0.061,4.244
		c0.041,1.19,0.123,2.687,0.246,4.49c0.123,1.805,0.186,2.83,0.186,3.076c0.123,2.624,0.184,5.423,0.184,8.395
		c0,2.974-0.03,6.315-0.092,10.026c-0.061,3.712-0.092,6.511-0.092,8.396c0.778,0,1.477-0.02,2.091-0.061
		c0.451-0.04,0.696,0.165,0.738,0.615c0.04,0.452-0.165,0.698-0.615,0.738c-0.614,0.04-2.645,0.061-6.089,0.061
		c-0.452,0-0.678-0.225-0.678-0.677c0-0.45,0.226-0.677,0.678-0.677h1.414h1.107c0-1.886,0.031-4.685,0.092-8.396
		c0.062-3.711,0.093-7.043,0.093-9.995c0-2.953-0.062-5.761-0.185-8.427c0-0.205-0.062-1.21-0.184-3.015
		c-0.123-1.804-0.206-3.301-0.246-4.49c-0.083-1.763-0.103-3.219-0.062-4.367c0.041-0.984,0.123-1.763,0.246-2.338
		c-0.615,0.042-1.189,0.083-1.723,0.123c-0.451,0.042-0.697-0.163-0.738-0.614S196.758,214.857,197.209,214.816z"/>
	<path fill="#70C175" stroke="#70C175" stroke-miterlimit="10" d="M231.778,215c0.656-0.123,1.374-0.185,2.153-0.185
		c0.778,0,1.63,0.03,2.553,0.092c0.923,0.061,1.589,0.093,1.999,0.093c0.45,0,0.677,0.226,0.677,0.676
		c0,0.452-0.227,0.677-0.677,0.677c-0.533,0-1.313-0.04-2.338-0.123c0,0.575-0.072,3.22-0.215,7.936
		c-0.145,4.716-0.216,8.611-0.216,11.686c0,5.127,0.123,8.941,0.369,11.441c0.123,1.683,0.308,3.056,0.554,4.121
		c0.286,1.108,0.594,1.867,0.923,2.276l0.554,0.738c0.246,0.328,0.45,0.574,0.615,0.738l0.492,0.615
		c0.204,0.245,0.409,0.43,0.615,0.553c1.147,0.944,2.553,1.6,4.213,1.969c1.661,0.369,3.312,0.431,4.952,0.185
		c1.681-0.246,3.168-0.82,4.459-1.723c1.292-0.901,2.204-2.07,2.737-3.506c0.697-1.927,1.179-4.152,1.445-6.674
		c0.267-2.522,0.39-4.572,0.369-6.151c-0.021-1.578-0.133-4.038-0.338-7.381c-0.206-3.342-0.329-5.506-0.369-6.49
		c-0.041-0.615,0-2.378,0.123-5.29c0.04-2.05-0.062-3.73-0.308-5.044c-0.943,0.042-1.887,0.104-2.829,0.184
		c-0.452,0.042-0.698-0.163-0.738-0.615c-0.042-0.45,0.163-0.696,0.615-0.737c1.845-0.164,4.306-0.246,7.381-0.246
		c0.451,0,0.677,0.226,0.677,0.677c0,0.451-0.226,0.676-0.677,0.676h-3.075c0.246,1.395,0.348,3.117,0.308,5.167
		c-0.123,2.871-0.165,4.613-0.123,5.229c0.04,1.107,0.143,2.82,0.308,5.137c0.163,2.317,0.276,4.234,0.338,5.751
		c0.062,1.518,0.071,3.291,0.031,5.321c-0.042,2.029-0.216,3.957-0.523,5.781c-0.308,1.825-0.768,3.559-1.384,5.198
		c-0.615,1.723-1.661,3.097-3.137,4.121c-1.477,1.024-3.179,1.681-5.105,1.969c-1.806,0.246-3.63,0.163-5.475-0.246
		c-1.846-0.41-3.425-1.129-4.736-2.153c-0.288-0.246-0.564-0.522-0.831-0.83c-0.267-0.308-0.605-0.728-1.015-1.261
		c-0.41-0.533-0.636-0.8-0.677-0.8c-0.451-0.574-0.82-1.517-1.107-2.83c-0.246-1.148-0.451-2.583-0.614-4.306
		c-0.246-2.542-0.369-6.397-0.369-11.564c0-3.075,0.07-6.971,0.215-11.686c0.144-4.716,0.216-7.382,0.216-7.997
		c-1.067-0.04-1.99,0.021-2.769,0.185c-0.45,0.083-0.717-0.102-0.8-0.554C231.144,215.349,231.328,215.082,231.778,215z"/>
</g>
<g>
	<path fill="#70C175" d="M145.476,412.541c0-4.301-1.065-8.461-3.101-12.033l-0.486-0.846h-30.237l-0.472,0.846
		c-2.034,3.566-3.101,7.732-3.101,12.033c0,10.969,6.983,20.07,16.047,21.572v25.621c-5.227,0.215-9.124,1.012-9.124,1.943
		c0,1.121,5.308,2.016,11.861,2.016c6.555,0,11.871-0.895,11.871-2.016c0-0.932-3.892-1.728-9.12-1.943v-25.639
		C138.587,432.492,145.476,423.432,145.476,412.541z M126.771,430.99c-8.461,0-15.355-8.275-15.355-18.459
		c0-3.391,0.764-6.67,2.216-9.537h26.287c1.449,2.867,2.222,6.15,2.222,9.537C142.145,422.715,135.24,430.99,126.771,430.99z
		 M177.486,371.42h-13.295v-11.531h13.295V371.42z M177.486,385.709v-10.742h-13.295v10.744c-5.616,2.531-9.542,8.176-9.542,14.746
		v10.535v33.578v19.723h32.375V444.57v-33.578v-10.535C187.027,393.887,183.111,388.242,177.486,385.709z M184.166,448.021h-26.373
		v-31.645h26.373V448.021z M140.744,412.889c0,0-0.698,16.727-13.747,16.727c-13.046,0-14.805-16.727-14.805-16.727H140.744z"/>
	<g>
		<path fill="#70C175" d="M271.903,458.557h-7.985c1.44-0.682,2.559-1.992,2.795-3.51c0.194-1.227,0.285-2.438,0.285-3.707
			c0.002-7.701-3.482-14.932-9.809-20.355c-5.708-4.895-13.125-7.756-21.077-8.23v-5.646c0.415,0.236,0.891,0.385,1.405,0.385
			c1.566,0,2.837-1.27,2.837-2.838c0-1.566-1.271-2.836-2.837-2.836c-1.072,0-1.995,0.6-2.479,1.477
			c-0.119-0.031-0.234-0.072-0.362-0.072c-0.126,0-0.241,0.041-0.358,0.072c-0.483-0.877-1.406-1.477-2.479-1.477
			c-1.566,0-2.837,1.27-2.837,2.836c0,1.568,1.271,2.838,2.837,2.838c0.513,0,0.986-0.148,1.404-0.385v5.564
			c-18.065,0.248-32.677,13.01-32.677,28.668c0,1.213,0.088,2.449,0.262,3.678c0.218,1.533,1.326,2.855,2.764,3.539h-6.965
			c-1.581,0-2.867,1.285-2.867,2.869c0,1.58,1.286,2.867,2.867,2.867h75.275c1.582,0,2.867-1.287,2.867-2.867
			C274.771,459.842,273.485,458.557,271.903,458.557z M233.784,425.525c8.147,0,15.797,2.713,21.537,7.637
			c5.68,4.869,8.81,11.326,8.81,18.18c0,1.117-0.083,2.186-0.251,3.264c-0.128,0.814-1.13,1.586-2.064,1.586h-56.131
			c-0.922,0-1.903-0.766-2.017-1.578c-0.155-1.094-0.232-2.195-0.232-3.273C203.436,437.105,217.049,425.525,233.784,425.525z
			 M271.903,462.857h-75.275c-0.789,0-1.433-0.641-1.433-1.432c0-0.793,0.644-1.434,1.433-1.434h75.275
			c0.791,0,1.434,0.641,1.434,1.434C273.337,462.217,272.694,462.857,271.903,462.857z"/>
		<path fill="#70C175" d="M210.529,451.394c0.015,0,0.031,0.002,0.044,0.002c0.376,0,0.692-0.293,0.718-0.674
			c0.009-0.146,1.076-14.666,16.2-20.254c0.371-0.137,0.562-0.549,0.423-0.92c-0.138-0.373-0.551-0.56-0.921-0.424
			c-16.026,5.918-17.128,21.359-17.136,21.514C209.834,451.033,210.135,451.371,210.529,451.394z"/>
		<path fill="#70C175" d="M216.989,408.56c3.649,2.129,2.798,8.094,2.789,8.152c-0.061,0.393,0.209,0.758,0.601,0.816
			c0.038,0.006,0.073,0.01,0.109,0.01c0.348,0,0.655-0.254,0.707-0.608c0.044-0.285,1.012-6.988-3.485-9.609
			c-2.661-1.555-3.77-3.399-3.919-4.608c-0.062-0.498,0.035-0.906,0.274-1.139c0.284-0.275,0.29-0.729,0.012-1.012
			c-0.274-0.283-0.73-0.289-1.015-0.01c-0.565,0.551-0.811,1.383-0.693,2.336C212.616,404.896,214.344,407.018,216.989,408.56z"/>
		<path fill="#70C175" d="M249.488,418.41c0.034,0,0.071-0.002,0.107-0.008c0.392-0.059,0.661-0.426,0.601-0.816
			c-0.008-0.059-0.871-6.016,2.789-8.154c2.646-1.545,4.373-3.664,4.618-5.67c0.119-0.955-0.128-1.783-0.693-2.338
			c-0.284-0.273-0.74-0.271-1.015,0.01c-0.278,0.287-0.273,0.738,0.012,1.016c0.241,0.234,0.336,0.639,0.276,1.139
			c-0.15,1.207-1.256,3.051-3.919,4.607c-4.495,2.621-3.527,9.322-3.485,9.607C248.834,418.16,249.141,418.41,249.488,418.41z"/>
		<path fill="#70C175" d="M234.071,407.408c0.137,0.217,0.369,0.338,0.609,0.338c0.13,0,0.264-0.039,0.381-0.113
			c0.333-0.211,0.438-0.652,0.225-0.986c-0.018-0.027-1.69-2.738-0.122-4.184c1.579-1.451,2.314-2.994,2.182-4.584
			c-0.214-2.611-2.729-4.285-2.837-4.355c-0.33-0.215-0.774-0.123-0.99,0.207c-0.218,0.33-0.125,0.777,0.207,0.992
			c0.02,0.014,2.033,1.352,2.192,3.273c0.092,1.125-0.487,2.273-1.725,3.412C231.756,403.652,233.976,407.256,234.071,407.408z"/>
	</g>
</g>
<g>
	<g>
		<polygon fill="#302E2B" points="191.424,42.788 198.726,49.355 207.304,44.577 212.96,52.604 222.388,49.855 226.116,58.939 
			235.917,58.357 237.53,68.042 247.218,69.656 246.634,79.458 255.718,83.186 252.97,92.613 260.997,98.269 256.218,106.847 
			262.786,114.148 256.218,121.449 260.997,130.028 252.97,135.683 255.718,145.111 246.634,148.839 247.218,158.64 237.53,160.254 
			235.917,169.941 226.116,169.358 222.388,178.442 212.96,175.693 207.304,183.72 198.726,178.942 191.424,185.509 
			184.124,178.942 175.545,183.72 169.889,175.693 160.462,178.442 156.733,169.358 146.932,169.941 145.318,160.254 
			135.632,158.64 136.215,148.839 127.131,145.111 129.88,135.683 121.853,130.028 126.631,121.449 120.064,114.148 
			126.631,106.847 121.853,98.269 129.88,92.613 127.131,83.186 136.215,79.458 135.632,69.656 145.318,68.042 146.932,58.357 
			156.733,58.939 160.462,49.855 169.889,52.604 175.545,44.577 184.124,49.355 		"/>
		<path fill="#D4D5D6" d="M191.424,186.854l-7.438-6.691l-8.741,4.869l-5.763-8.179l-9.605,2.801l-3.799-9.255l-9.986,0.594
			l-1.644-9.869l-9.869-1.645l0.594-9.985l-9.255-3.799l2.801-9.605l-8.179-5.762l4.869-8.741l-6.691-7.438l6.691-7.438l-4.869-8.74
			l8.179-5.763l-2.801-9.604l9.255-3.798l-0.594-9.988l9.869-1.644l1.644-9.868l9.986,0.593l3.799-9.255l9.605,2.801l5.763-8.179
			l8.741,4.869l7.438-6.691l7.439,6.691l8.739-4.869l5.764,8.179l9.605-2.801l3.799,9.255l9.985-0.593l1.644,9.868l9.87,1.644
			l-0.595,9.988l9.255,3.798l-2.8,9.604l8.179,5.763l-4.869,8.74l6.691,7.438l-6.691,7.438l4.869,8.741l-8.179,5.762l2.8,9.605
			l-9.255,3.799l0.595,9.985l-9.87,1.645l-1.644,9.869l-9.986-0.594l-3.798,9.255l-9.605-2.801l-5.764,8.179l-8.739-4.869
			L191.424,186.854z M184.262,177.721l7.162,6.443l7.164-6.443l8.417,4.688l5.549-7.876l9.25,2.697l3.658-8.913l9.616,0.572
			l1.583-9.504l9.505-1.583l-0.573-9.616l8.913-3.658l-2.696-9.251l7.876-5.548l-4.689-8.418l6.445-7.163l-6.445-7.163l4.689-8.417
			l-7.876-5.55l2.696-9.249l-8.913-3.657l0.573-9.618l-9.505-1.582l-1.583-9.503l-9.616,0.571l-3.658-8.913l-9.25,2.697
			l-5.549-7.876l-8.417,4.688l-7.164-6.443l-7.162,6.443l-8.417-4.688l-5.55,7.876l-9.249-2.697l-3.658,8.913l-9.617-0.571
			l-1.583,9.503l-9.504,1.583l0.572,9.618l-8.913,3.657l2.697,9.249l-7.876,5.55l4.688,8.417l-6.443,7.163l6.443,7.163l-4.688,8.418
			l7.876,5.548l-2.697,9.251l8.913,3.658l-0.572,9.616l9.504,1.583l1.583,9.504l9.617-0.572l3.658,8.913l9.249-2.697l5.55,7.876
			L184.262,177.721z"/>
	</g>
	<g id="b150_hat">
		<path fill="#70C175" d="M210.566,97.695c0.004-0.139,0.025-0.272,0.025-0.412c-0.002-9.928-8.049-17.981-17.986-17.981
			c-9.931,0-17.984,8.053-17.984,17.983c0,0.025,0,0.052,0,0.077c-9.257,0.733-16.54,8.466-16.54,17.913
			c0,9.479,7.326,17.219,16.612,17.916v7.346h35.822v-7.674c8.143-1.708,14.254-8.926,14.254-17.59
			C224.769,106.642,218.681,99.431,210.566,97.695z"/>
		<rect x="174.84" y="141.864" fill="#70C175" width="35.54" height="7.132"/>
	</g>
</g>
</svg>
